<?xml version="1.0" encoding="UTF-8" standalone="no"?>
<!-- Generator: Adobe Illustrator 16.0.4, SVG Export Plug-In . SVG Version: 6.00 Build 0)  -->

<svg
   xmlns:dc="http://purl.org/dc/elements/1.1/"
   xmlns:cc="http://creativecommons.org/ns#"
   xmlns:rdf="http://www.w3.org/1999/02/22-rdf-syntax-ns#"
   xmlns:svg="http://www.w3.org/2000/svg"
   xmlns="http://www.w3.org/2000/svg"
   xmlns:sodipodi="http://sodipodi.sourceforge.net/DTD/sodipodi-0.dtd"
   xmlns:inkscape="http://www.inkscape.org/namespaces/inkscape"
   version="1.1"
   id="Layer_1"
   x="0px"
   y="0px"
   width="36px"
   height="36px"
   viewBox="0 0 36 36"
   enable-background="new 0 0 36 36"
   xml:space="preserve"
   sodipodi:docname="Icon-search2.svg"
   inkscape:version="0.92.3 (2405546, 2018-03-11)"><metadata
   id="metadata23"><rdf:RDF><cc:Work
       rdf:about=""><dc:format>image/svg+xml</dc:format><dc:type
         rdf:resource="http://purl.org/dc/dcmitype/StillImage" /><dc:title></dc:title></cc:Work></rdf:RDF></metadata><defs
   id="defs21" /><sodipodi:namedview
   pagecolor="#ffffff"
   bordercolor="#666666"
   borderopacity="1"
   objecttolerance="10"
   gridtolerance="10"
   guidetolerance="10"
   inkscape:pageopacity="0"
   inkscape:pageshadow="2"
   inkscape:window-width="1920"
   inkscape:window-height="986"
   id="namedview19"
   showgrid="false"
   inkscape:zoom="6.5555556"
   inkscape:cx="18"
   inkscape:cy="18"
   inkscape:window-x="-11"
   inkscape:window-y="-11"
   inkscape:window-maximized="1"
   inkscape:current-layer="Layer_1" />
<g
   id="search_1_"
   style="fill:#ffffff">
	<g
   id="search"
   style="fill:#ffffff">
		<path
   d="M35.525,31.228l-8.88-8.882c1.444-2.238,2.298-4.895,2.298-7.752c0-7.909-6.438-14.343-14.346-14.343    c-7.911,0-14.343,6.434-14.343,14.343c0,7.911,6.433,14.344,14.343,14.344c2.856,0,5.513-0.849,7.752-2.294l8.88,8.88    c0.295,0.297,0.782,0.297,1.076,0l3.22-3.221C35.824,32.008,35.824,31.523,35.525,31.228z M4.81,14.593    c0-5.396,4.391-9.788,9.788-9.788c5.398,0,9.787,4.392,9.787,9.788c0,5.398-4.389,9.789-9.787,9.789    C9.2,24.382,4.81,19.991,4.81,14.593z"
   id="path2"
   style="fill:#ffffff" />
	</g>
</g>
<g
   id="g6">
</g>
<g
   id="g8">
</g>
<g
   id="g10">
</g>
<g
   id="g12">
</g>
<g
   id="g14">
</g>
<g
   id="g16">
</g>
</svg>